HIERARCHY
ROOT hip
{
	OFFSET 0.000000 0.000000 0.000000 
	CHANNELS 6 Xposition Yposition Zposition Xrotation Zrotation Yrotation
	JOINT abdomen
	{
		OFFSET 0.000000 3.402643 0.000000 
		CHANNELS 3 Xrotation Zrotation Yrotation
		JOINT chest
		{
			OFFSET 0.000000 8.438565 -0.680529 
			CHANNELS 3 Xrotation Zrotation Yrotation
			JOINT neck
			{
				OFFSET 0.000000 10.207942 -0.272212 
				CHANNELS 3 Xrotation Zrotation Yrotation
				JOINT head
				{
					OFFSET 0.000000 3.130431 0.000000 
					CHANNELS 3 Xrotation Zrotation Yrotation
					End Site
					{
						OFFSET 0.000000 3.130435 0.000000 
					}
				}
			}
			JOINT lCollar
			{
				OFFSET 3.470700 6.669187 -0.816635 
				CHANNELS 3 Yrotation Zrotation Xrotation
				JOINT lShldr
				{
					OFFSET 3.198488 0.000000 0.000000 
					CHANNELS 3 Zrotation Yrotation Xrotation
					JOINT lForeArm
					{
						OFFSET 10.139888 0.000000 0.000000 
						CHANNELS 3 Yrotation Zrotation Xrotation
						JOINT lHand
						{
							OFFSET 8.370511 0.000000 0.000000 
							CHANNELS 3 Zrotation Yrotation Xrotation
							End Site
							{
								OFFSET 4.083176 0.000000 0.000000 
							}
						}
					}
				}
			}
			JOINT rCollar
			{
				OFFSET -3.470700 6.669187 -0.816635 
				CHANNELS 3 Yrotation Zrotation Xrotation
				JOINT rShldr
				{
					OFFSET -3.198488 0.000000 0.000000 
					CHANNELS 3 Zrotation Yrotation Xrotation
					JOINT rForeArm
					{
						OFFSET -10.139888 0.000000 0.000000 
						CHANNELS 3 Yrotation Zrotation Xrotation
						JOINT rHand
						{
							OFFSET -8.370511 0.000000 0.000000 
							CHANNELS 3 Zrotation Yrotation Xrotation
							End Site
							{
								OFFSET -4.083176 0.000000 0.000000 
							}
						}
					}
				}
			}
		}
	}
	JOINT lThigh
	{
		OFFSET 5.308129 -1.633274 1.361059 
		CHANNELS 3 Xrotation Zrotation Yrotation
		JOINT lShin
		{
			OFFSET -2.041588 -20.007561 0.000000 
			CHANNELS 3 Xrotation Zrotation Yrotation
			JOINT lFoot
			{
				OFFSET 0.000000 -19.190928 -1.224953 
				CHANNELS 3 Xrotation Yrotation Zrotation
				End Site
				{
					OFFSET 0.000000 -2.449906 4.627600 
				}
			}
		}
	}
	JOINT rThigh
	{
		OFFSET -5.308129 -1.633274 1.361059 
		CHANNELS 3 Xrotation Zrotation Yrotation
		JOINT rShin
		{
			OFFSET 2.041588 -20.007561 0.000000 
			CHANNELS 3 Xrotation Zrotation Yrotation
			JOINT rFoot
			{
				OFFSET 0.000000 -19.190928 -1.224953 
				CHANNELS 3 Xrotation Yrotation Zrotation
				End Site
				{
					OFFSET 0.000000 -2.449906 4.627600 
				}
			}
		}
	}
}
MOTION
Frames: 15
Frame Time: 0.016667
-0.539413 41.544003 0.064789 2.042100 -1.864050 1.359050 -16.698200 0.836633 -1.237560 27.101999 1.542620 -0.369702 -6.955935 8.132162 -15.921917 11.475709 -1.272768 -5.346915 2.000000 -2.000000 0.000000 88.535301 -175.886993 -4.678410 25.898701 -0.337834 0.059775 0.067261 -0.062937 -160.016998 -2.000000 2.000000 0.000000 89.793602 4.406610 170.811005 -24.316700 0.339435 0.056300 -0.056226 0.024138 -145.574005 -10.045982 -2.678757 2.704531 28.636103 2.636201 2.221047 -18.089199 17.173359 4.758362 -13.207409 6.319755 -2.119993 35.070034 -2.298428 -2.704935 -24.927559 -4.956739 -3.863934 
-0.541912 41.543362 0.063052 2.022540 -1.854310 1.360030 -16.727400 0.833026 -1.247300 27.053101 1.542770 -0.371017 -6.768631 8.253454 -15.875371 11.510108 -1.342429 -5.351853 2.000000 -2.000000 0.000000 88.525497 -175.945999 -4.737130 25.869400 -0.337864 0.059712 0.067229 -0.062862 -159.988007 -2.000000 2.000000 0.000000 89.793602 4.357760 170.820999 -24.267799 0.339483 0.056194 -0.056193 0.023921 -145.496002 -10.083797 -2.686420 2.718058 28.750708 2.662793 2.206229 -18.155226 17.186323 4.745163 -13.185707 6.319115 -2.127158 35.089783 -2.301935 -2.715305 -24.949717 -4.947570 -3.859120 
-0.544763 41.543362 0.061869 2.002990 -1.844580 1.361000 -16.756800 0.836274 -1.238750 27.004299 1.542920 -0.372331 -6.509848 8.454679 -15.844600 11.568758 -1.454909 -5.355885 2.000000 -2.000000 0.000000 88.525497 -175.994003 -4.766530 25.840099 -0.337895 0.059649 0.067207 -0.062812 -159.968994 -2.000000 2.000000 0.000000 89.803299 4.318760 170.792007 -24.219000 0.339531 0.056087 -0.056168 0.023759 -145.436996 -10.051010 -2.695093 2.725078 28.721779 2.652433 2.194467 -18.126831 17.197598 4.757495 -13.177320 6.312210 -2.144997 35.118450 -2.307029 -2.706536 -24.967897 -4.959885 -3.857083 
-0.548095 41.544262 0.062701 1.993220 -1.844590 1.371080 -16.795799 0.836034 -1.239550 26.965200 1.543040 -0.373383 -6.078837 8.752623 -15.748236 11.652888 -1.639949 -5.367291 2.000000 -2.000000 0.000000 88.525597 -176.052994 -4.815490 25.791300 -0.337946 0.059544 0.067175 -0.062736 -159.938995 -2.000000 2.000000 0.000000 89.813004 4.270050 170.742996 -24.160400 0.339588 0.055960 -0.056136 0.023543 -145.358994 -10.051577 -2.694878 2.715362 28.731518 2.653197 2.194498 -18.108431 17.219923 4.755739 -13.173205 6.321935 -2.134664 35.108574 -2.308744 -2.707269 -24.956339 -4.970997 -3.852387 
-0.551767 41.545673 0.065524 2.003000 -1.854340 1.370420 -16.844601 0.822958 -1.246860 26.926100 1.543150 -0.374435 -5.493739 9.081451 -15.631981 11.732711 -1.866623 -5.390882 2.000000 -2.000000 0.000000 88.535301 -176.110992 -4.874210 25.752199 -0.337986 0.059461 0.067154 -0.062686 -159.919998 -2.000000 2.000000 0.000000 89.842300 4.270280 170.645004 -24.043200 0.339703 0.055704 -0.056084 0.023191 -145.231995 -10.065176 -2.684568 2.696748 28.731485 2.653606 2.194605 -18.097393 17.248453 4.759668 -13.220617 6.337935 -2.122219 35.138004 -2.307301 -2.706114 -24.952148 -4.988872 -3.864221 
-0.554518 41.546574 0.070358 2.012780 -1.864080 1.369760 -16.893299 0.819230 -1.256990 26.896799 1.523830 -0.387148 -4.733204 9.426232 -15.454358 11.805905 -2.166997 -5.415533 2.000000 -2.000000 0.000000 88.554901 -176.149994 -4.962190 25.693600 -0.338047 0.059335 0.067111 -0.062585 -159.880997 -2.000000 2.000000 0.000000 89.871597 4.280300 170.537994 -23.935801 0.339807 0.055470 -0.056037 0.022866 -145.115005 -10.068178 -2.674359 2.686916 28.742058 2.653699 2.213918 -18.100819 17.244999 4.757357 -13.174720 6.344481 -2.107812 35.100159 -2.291420 -2.711900 -24.969038 -4.993313 -3.890385 
-0.556556 41.546833 0.075499 2.022570 -1.873830 1.359330 -16.932301 0.809648 -1.254940 26.886999 1.504450 -0.379798 -3.925052 9.782838 -15.261136 11.875468 -2.489325 -5.437251 2.000000 -2.000000 0.000000 88.564697 -176.188995 -5.050170 25.635000 -0.338107 0.059209 0.067069 -0.062484 -159.841995 -2.000000 2.000000 0.000000 89.891098 4.251110 170.488998 -23.877199 0.339863 0.055342 -0.056014 0.022704 -145.057007 -10.061416 -2.662988 2.676566 28.731911 2.653251 2.204142 -18.102167 17.270947 4.772324 -13.169332 6.355231 -2.116906 35.089275 -2.297143 -2.694411 -24.971018 -4.989318 -3.877180 
-0.558968 41.545937 0.080916 2.012810 -1.883600 1.349540 -16.961700 0.803556 -1.243540 26.877199 1.494770 -0.381130 -3.120920 10.147525 -15.037577 11.952893 -2.798531 -5.464149 2.000000 -2.000000 0.000000 88.584297 -176.188995 -5.128290 25.566700 -0.338178 0.059062 0.067026 -0.062384 -159.802994 -2.000000 2.000000 0.000000 89.891098 4.202290 170.488998 -23.877199 0.339863 0.055342 -0.056022 0.022758 -145.076004 -10.053584 -2.653835 2.675532 28.752237 2.649258 2.212574 -18.146843 17.270716 4.770479 -13.139023 6.372941 -2.123779 35.059772 -2.300010 -2.695912 -24.965130 -4.971725 -3.864923 
-0.562151 41.544262 0.086022 2.003050 -1.893370 1.329990 -16.971600 0.801013 -1.222590 26.886900 1.485030 -0.372187 -2.392256 10.501458 -14.844634 12.027552 -3.079015 -5.474169 2.000000 -2.000000 0.000000 88.594002 -176.169006 -5.186840 25.527599 -0.338218 0.058977 0.066994 -0.062308 -159.772995 -2.000000 2.000000 0.000000 89.881302 4.202260 170.498001 -23.886999 0.339854 0.055364 -0.056026 0.022785 -145.085999 -10.048026 -2.637359 2.664704 28.771618 2.656605 2.223753 -18.180082 17.264544 4.771726 -13.123560 6.382816 -2.121876 35.049171 -2.307808 -2.688598 -24.964094 -4.976144 -3.867847 
-0.565444 41.542450 0.090846 1.983520 -1.903160 1.310770 -16.961901 0.804500 -1.213260 26.926001 1.484920 -0.361409 -1.755873 10.789906 -14.675517 12.095786 -3.330423 -5.497035 2.000000 -2.000000 0.000000 88.603798 -176.110992 -5.216010 25.527599 -0.338218 0.058977 0.066983 -0.062283 -159.763000 -2.000000 2.000000 0.000000 89.861801 4.241260 170.528000 -23.926001 0.339816 0.055449 -0.056041 0.022893 -145.125000 -10.028594 -2.630359 2.682198 28.790476 2.660823 2.214857 -18.211689 17.252466 4.791960 -13.104711 6.399836 -2.120271 35.049076 -2.309525 -2.689148 -24.947174 -4.958465 -3.866309 
-0.568894 41.540520 0.093965 1.954210 -1.912950 1.301640 -16.942499 0.811474 -1.194580 26.974800 1.484780 -0.360144 -1.264179 11.019661 -14.544691 12.148711 -3.536081 -5.519221 2.000000 -2.000000 0.000000 88.603798 -176.052002 -5.225650 25.566700 -0.338178 0.059062 0.066983 -0.062283 -159.763000 -2.000000 2.000000 0.000000 89.832497 4.280230 170.567001 -24.013901 0.339731 0.055641 -0.056068 0.023083 -145.192993 -10.002208 -2.610483 2.699042 28.818624 2.666450 2.196315 -18.242210 17.266436 4.797030 -13.072877 6.420449 -2.127266 35.059052 -2.305997 -2.687927 -24.955641 -4.973966 -3.854367 
-0.572743 41.538845 0.095057 1.924910 -1.922740 1.312050 -16.913300 0.830337 -1.199680 27.014000 1.504070 -0.347168 -0.961149 11.169498 -14.474658 12.190351 -3.654228 -5.528034 2.000000 -2.000000 0.000000 88.594002 -176.022995 -5.186520 25.664301 -0.338077 0.059272 0.067037 -0.062409 -159.811996 -2.000000 2.000000 0.000000 89.803200 4.299580 170.645004 -24.160400 0.339588 0.055960 -0.056116 0.023407 -145.309998 -9.975699 -2.601896 2.667041 28.828876 2.665743 2.205700 -18.258074 17.260303 4.805701 -13.044115 6.432875 -2.153280 35.048626 -2.310624 -2.679401 -24.957516 -4.961468 -3.857514 
-0.576797 41.536522 0.093871 1.885830 -1.922790 1.323130 -16.884001 0.839860 -1.201930 27.043301 1.523390 -0.353956 -0.846138 11.229793 -14.446644 12.205962 -3.699925 -5.528903 2.000000 -2.000000 0.000000 88.594002 -176.013000 -5.118140 25.791300 -0.337946 0.059544 0.067111 -0.062585 -159.880997 -2.000000 2.000000 0.000000 89.754501 4.309110 170.742996 -24.326401 0.339426 0.056321 -0.056176 0.023813 -145.457001 -9.937601 -2.593316 2.663261 28.849264 2.661045 2.213946 -18.260811 17.261282 4.794904 -12.985902 6.440171 -2.155898 35.039520 -2.305523 -2.688216 -24.968138 -4.963303 -3.847930 
-0.580395 41.534462 0.090392 1.856510 -1.922820 1.333880 -16.854700 0.849385 -1.204170 27.062901 1.542740 -0.351222 -0.888834 11.198462 -14.450665 12.191765 -3.684033 -5.535994 2.000000 -2.000000 0.000000 88.593903 -176.013000 -5.020480 25.947599 -0.337783 0.059880 0.067218 -0.062837 -159.977997 -2.000000 2.000000 0.000000 89.725197 4.338150 170.850006 -24.463200 0.339291 0.056618 -0.056238 0.024219 -145.602997 -9.915633 -2.601226 2.661497 28.868282 2.668083 2.215353 -18.251341 17.257166 4.790698 -12.966761 6.433142 -2.172476 35.069073 -2.301731 -2.686502 -24.988697 -4.956505 -3.856091 
-0.583567 41.533691 0.084909 1.827190 -1.913090 1.354710 -16.835199 0.855425 -1.215740 27.062901 1.552440 -0.350115 -1.050960 11.085452 -14.479663 12.158306 -3.624705 -5.522560 2.000000 -2.000000 0.000000 88.593903 -176.042999 -4.922890 26.084299 -0.337640 0.060173 0.067315 -0.063063 -160.065994 -2.000000 2.000000 0.000000 89.695999 4.357480 170.938004 -24.560801 0.339194 0.056830 -0.056275 0.024462 -145.690994 -9.905864 -2.602256 2.650874 28.867872 2.668272 2.205673 -18.244001 17.282085 4.794894 -12.965588 6.434805 -2.182245 35.089001 -2.302080 -2.695868 -24.989376 -4.949133 -3.862627 
